{"scene":0,"asset":{"generator":"ImageToStl.com","version":"2.0"},"scenes":[{"name":"Scene","nodes":[0]}],"nodes":[{"name":"Node0","children":[1]},{"name":"Node1","mesh":0,"children":[2,3,4,5,6,7,8,9,10,11,12,13,14,15,16,17,18,19,20,21,22,23,24,25,26,27,28,29]},{"name":"Node2","mesh":1},{"name":"Node3","mesh":2},{"name":"Node4","mesh":3},{"name":"Node5","mesh":4},{"name":"Node6","mesh":5},{"name":"Node7","mesh":6},{"name":"Node8","mesh":7},{"name":"Node9","mesh":8},{"name":"Node10","mesh":9},{"name":"Node11","mesh":10},{"name":"Node12","mesh":11},{"name":"Node13","mesh":12},{"name":"Node14","mesh":13},{"name":"Node15","mesh":14},{"name":"Node16","mesh":15},{"name":"Node17","mesh":16},{"name":"Node18","mesh":17},{"name":"Node19","mesh":18},{"name":"Node20","mesh":19},{"name":"Node21","mesh":20},{"name":"Node22","mesh":21},{"name":"Node23","mesh":22},{"name":"Node24","mesh":23},{"name":"Node25","mesh":24},{"name":"Node26","mesh":25},{"name":"Node27","mesh":26},{"name":"Node28","mesh":27},{"name":"Node29","mesh":28}],"materials":[{"name":"#745E5BFF","pbrMetallicRoughness":{"baseColorFactor":[0.45490196,0.36862746,0.35686275,1.0],"metallicFactor":0.05,"roughnessFactor":0.5},"doubleSided":true},{"name":"#F4F4F4FF","pbrMetallicRoughness":{"baseColorFactor":[0.95686275,0.95686275,0.95686275,1.0],"metallicFactor":0.05,"roughnessFactor":0.5},"doubleSided":true},{"name":"#FFFFFFFF","pbrMetallicRoughness":{"baseColorFactor":[1.0,1.0,1.0,1.0],"metallicFactor":0.05,"roughnessFactor":0.5},"doubleSided":true},{"name":"#066A17FF","pbrMetallicRoughness":{"baseColorFactor":[0.023529412,0.41568628,0.09019608,1.0],"metallicFactor":0.05,"roughnessFactor":0.5},"doubleSided":true},{"name":"#1825F8FF","pbrMetallicRoughness":{"baseColorFactor":[0.09411765,0.14509805,0.972549,1.0],"metallicFactor":0.05,"roughnessFactor":0.5},"doubleSided":true},{"name":"#FFF1B1FF","pbrMetallicRoughness":{"baseColorFactor":[1.0,0.94509804,0.69411767,1.0],"metallicFactor":0.05,"roughnessFactor":0.5},"doubleSided":true},{"name":"#C8C8C8FF","pbrMetallicRoughness":{"baseColorFactor":[0.78431374,0.78431374,0.78431374,1.0],"metallicFactor":0.05,"roughnessFactor":0.5},"doubleSided":true},{"name":"#A3A9AAFF","pbrMetallicRoughness":{"baseColorFactor":[0.6392157,0.6627451,0.6666667,1.0],"metallicFactor":0.05,"roughnessFactor":0.5},"doubleSided":true},{"name":"#494949FF","pbrMetallicRoughness":{"baseColorFactor":[0.28627452,0.28627452,0.28627452,1.0],"metallicFactor":0.05,"roughnessFactor":0.5},"doubleSided":true},{"name":"#A59F8FFF","pbrMetallicRoughness":{"baseColorFactor":[0.64705884,0.62352943,0.56078434,1.0],"metallicFactor":0.05,"roughnessFactor":0.5},"doubleSided":true},{"name":"#D9C493FF","pbrMetallicRoughness":{"baseColorFactor":[0.8509804,0.76862746,0.5764706,1.0],"metallicFactor":0.05,"roughnessFactor":0.5},"doubleSided":true},{"name":"#CCCCCCFF","pbrMetallicRoughness":{"baseColorFactor":[0.8,0.8,0.8,1.0],"metallicFactor":0.05,"roughnessFactor":0.5},"doubleSided":true},{"name":"#B3B3B3FF","pbrMetallicRoughness":{"baseColorFactor":[0.7019608,0.7019608,0.7019608,1.0],"metallicFactor":0.05,"roughnessFactor":0.5},"doubleSided":true},{"name":"#81888CFF","pbrMetallicRoughness":{"baseColorFactor":[0.5058824,0.53333336,0.54901963,1.0],"metallicFactor":0.05,"roughnessFactor":0.5},"doubleSided":true},{"name":"#333333FF","pbrMetallicRoughness":{"baseColorFactor":[0.2,0.2,0.2,1.0],"metallicFactor":0.05,"roughnessFactor":0.5},"doubleSided":true},{"name":"#0A0A0AFF","pbrMetallicRoughness":{"baseColorFactor":[0.039215688,0.039215688,0.039215688,1.0],"metallicFactor":0.05,"roughnessFactor":0.5},"doubleSided":true},{"name":"#BFBFBFFF","pbrMetallicRoughness":{"baseColorFactor":[0.7490196,0.7490196,0.7490196,1.0],"metallicFactor":0.05,"roughnessFactor":0.5},"doubleSided":true},{"name":"#F5F5F5FF","pbrMetallicRoughness":{"baseColorFactor":[0.9607843,0.9607843,0.9607843,1.0],"metallicFactor":0.05,"roughnessFactor":0.5},"doubleSided":true},{"name":"#0000FFFF","pbrMetallicRoughness":{"baseColorFactor":[0.0,0.0,1.0,1.0],"metallicFactor":0.05,"roughnessFactor":0.5},"doubleSided":true},{"name":"#FFCC00FF","pbrMetallicRoughness":{"baseColorFactor":[1.0,0.8,0.0,1.0],"metallicFactor":0.05,"roughnessFactor":0.5},"doubleSided":true},{"name":"#999999FF","pbrMetallicRoughness":{"baseColorFactor":[0.6,0.6,0.6,1.0],"metallicFactor":0.05,"roughnessFactor":0.5},"doubleSided":true},{"name":"#000000FF","pbrMetallicRoughness":{"baseColorFactor":[0.0,0.0,0.0,1.0],"metallicFactor":0.05,"roughnessFactor":0.5},"doubleSided":true},{"name":"#000080FF","pbrMetallicRoughness":{"baseColorFactor":[0.0,0.0,0.5019608,1.0],"metallicFactor":0.05,"roughnessFactor":0.5},"doubleSided":true},{"name":"#540080FF","pbrMetallicRoughness":{"baseColorFactor":[0.32941177,0.0,0.5019608,1.0],"metallicFactor":0.05,"roughnessFactor":0.5},"doubleSided":true},{"name":"#009400FF","pbrMetallicRoughness":{"baseColorFactor":[0.0,0.5803922,0.0,1.0],"metallicFactor":0.05,"roughnessFactor":0.5},"doubleSided":true},{"name":"#D9D9D9FF","pbrMetallicRoughness":{"baseColorFactor":[0.8509804,0.8509804,0.8509804,1.0],"metallicFactor":0.05,"roughnessFactor":0.5},"doubleSided":true}],"meshes":[{"name":"Mesh0","primitives":[{"indices":1,"material":3,"attributes":{"POSITION":0}}]},{"name":"Mesh0","primitives":[{"indices":3,"material":0,"attributes":{"POSITION":2}}]},{"name":"Mesh0","primitives":[{"indices":5,"material":11,"attributes":{"POSITION":4}}]},{"name":"Mesh0","primitives":[{"indices":7,"material":10,"attributes":{"POSITION":6}}]},{"name":"Mesh0","primitives":[{"indices":9,"material":11,"attributes":{"POSITION":8}}]},{"name":"Mesh0","primitives":[{"indices":11,"material":12,"attributes":{"POSITION":10}}]},{"name":"Mesh0","primitives":[{"indices":13,"material":13,"attributes":{"POSITION":12}}]},{"name":"Mesh0","primitives":[{"indices":15,"material":19,"attributes":{"POSITION":14}}]},{"name":"Mesh0","primitives":[{"indices":17,"material":20,"attributes":{"POSITION":16}}]},{"name":"Mesh0","primitives":[{"indices":19,"material":21,"attributes":{"POSITION":18}}]},{"name":"Mesh0","primitives":[{"indices":21,"material":22,"attributes":{"POSITION":20}}]},{"name":"Mesh0","primitives":[{"indices":23,"material":1,"attributes":{"POSITION":22}}]},{"name":"Mesh0","primitives":[{"indices":25,"material":2,"attributes":{"POSITION":24}}]},{"name":"Mesh0","primitives":[{"indices":27,"material":4,"attributes":{"POSITION":26}}]},{"name":"Mesh0","primitives":[{"indices":29,"material":5,"attributes":{"POSITION":28}}]},{"name":"Mesh0","primitives":[{"indices":31,"material":6,"attributes":{"POSITION":30}}]},{"name":"Mesh0","primitives":[{"indices":33,"material":7,"attributes":{"POSITION":32}}]},{"name":"Mesh0","primitives":[{"indices":35,"material":14,"attributes":{"POSITION":34}}]},{"name":"Mesh0","primitives":[{"indices":37,"material":15,"attributes":{"POSITION":36}}]},{"name":"Mesh0","primitives":[{"indices":39,"material":16,"attributes":{"POSITION":38}}]},{"name":"Mesh0","primitives":[{"indices":41,"material":17,"attributes":{"POSITION":40}}]},{"name":"Mesh0","primitives":[{"indices":43,"material":18,"attributes":{"POSITION":42}}]},{"name":"Mesh0","primitives":[{"indices":45,"material":23,"attributes":{"POSITION":44}}]},{"name":"Mesh0","primitives":[{"indices":47,"material":3,"attributes":{"POSITION":46}}]},{"name":"Mesh0","primitives":[{"indices":49,"material":8,"attributes":{"POSITION":48}}]},{"name":"Mesh0","primitives":[{"indices":51,"material":9,"attributes":{"POSITION":50}}]},{"name":"Mesh0","primitives":[{"indices":53,"material":0,"attributes":{"POSITION":52}}]},{"name":"Mesh0","primitives":[{"indices":55,"material":24,"attributes":{"POSITION":54}}]},{"name":"Mesh0","primitives":[{"indices":57,"material":25,"attributes":{"POSITION":56}}]}],"accessors":[{"bufferView":0,"componentType":5126,"count":2654,"type":"VEC3","min":[-21.118055,-6.440974,1.59],"max":[-5.8596973,5.9222302,1.6]},{"bufferView":1,"componentType":5123,"count":7965,"type":"SCALAR"},{"bufferView":2,"componentType":5126,"count":1923,"type":"VEC3","min":[-20.9067,-4.7028,4.59],"max":[-7.2398434,4.7412,4.6]},{"bufferView":3,"componentType":5123,"count":8400,"type":"SCALAR"},{"bufferView":4,"componentType":5126,"count":2199,"type":"VEC3","min":[-18.97,-15.27,-8.85],"max":[19.13,15.27,3.375]},{"bufferView":5,"componentType":5123,"count":13422,"type":"SCALAR"},{"bufferView":6,"componentType":5126,"count":450,"type":"VEC3","min":[24.73,-1.475,1.52],"max":[27.95,1.475,3.24]},{"bufferView":7,"componentType":5123,"count":2640,"type":"SCALAR"},{"bufferView":8,"componentType":5126,"count":45,"type":"VEC3","min":[8.766673,-6.597983,1.6],"max":[11.166673,-3.947983,2.8]},{"bufferView":9,"componentType":5123,"count":210,"type":"SCALAR"},{"bufferView":10,"componentType":5126,"count":416,"type":"VEC3","min":[22.664,-10.3986,1.6],"max":[27.236,9.3986,2.9462]},{"bufferView":11,"componentType":5123,"count":1776,"type":"SCALAR"},{"bufferView":12,"componentType":5126,"count":1274,"type":"VEC3","min":[23.1974,-9.853185,2.222371],"max":[26.7026,8.853185,2.8193421]},{"bufferView":13,"componentType":5123,"count":7200,"type":"SCALAR"},{"bufferView":14,"componentType":5126,"count":1020,"type":"VEC3","min":[0.85,-9.0,1.6],"max":[6.3,-0.7,3.7]},{"bufferView":15,"componentType":5123,"count":6096,"type":"SCALAR"},{"bufferView":16,"componentType":5126,"count":288,"type":"VEC3","min":[8.75,5.81,1.6],"max":[17.55,8.19,2.16]},{"bufferView":17,"componentType":5123,"count":1620,"type":"SCALAR"},{"bufferView":18,"componentType":5126,"count":48,"type":"VEC3","min":[9.3,5.5,1.61],"max":[17.0,8.5,2.71]},{"bufferView":19,"componentType":5123,"count":228,"type":"SCALAR"},{"bufferView":20,"componentType":5126,"count":1248,"type":"VEC3","min":[-2.725,0.525,1.6],"max":[14.025,8.675,2.2]},{"bufferView":21,"componentType":5123,"count":9720,"type":"SCALAR"},{"bufferView":22,"componentType":5126,"count":2407,"type":"VEC3","min":[-22.148716,-6.2,1.6],"max":[6.2,7.6,4.6]},{"bufferView":23,"componentType":5123,"count":8547,"type":"SCALAR"},{"bufferView":24,"componentType":5126,"count":1565,"type":"VEC3","min":[-21.118055,-6.440974,1.59],"max":[-5.8596973,5.9222302,1.59]},{"bufferView":25,"componentType":5123,"count":4347,"type":"SCALAR"},{"bufferView":26,"componentType":5126,"count":8,"type":"VEC3","min":[-23.601109,3.8547153,2.85],"max":[-22.90111,5.3586946,2.9]},{"bufferView":27,"componentType":5123,"count":18,"type":"SCALAR"},{"bufferView":28,"componentType":5126,"count":2386,"type":"VEC3","min":[-28.085436,-8.2,1.59],"max":[-5.348463,7.7995005,2.61]},{"bufferView":29,"componentType":5123,"count":7731,"type":"SCALAR"},{"bufferView":30,"componentType":5126,"count":24,"type":"VEC3","min":[-23.601109,3.5697155,2.6],"max":[-22.90111,5.643695,2.9]},{"bufferView":31,"componentType":5123,"count":84,"type":"SCALAR"},{"bufferView":32,"componentType":5126,"count":1948,"type":"VEC3","min":[24.431232,-3.8858101,0.8499932],"max":[30.27399,3.8858101,4.250088]},{"bufferView":33,"componentType":5123,"count":11736,"type":"SCALAR"},{"bufferView":34,"componentType":5126,"count":706,"type":"VEC3","min":[23.1974,-10.3986,1.6254],"max":[26.7026,9.3986,3.6066]},{"bufferView":35,"componentType":5123,"count":3468,"type":"SCALAR"},{"bufferView":36,"componentType":5126,"count":144,"type":"VEC3","min":[0.25,2.35,1.6],"max":[6.75,5.85,3.1]},{"bufferView":37,"componentType":5123,"count":528,"type":"SCALAR"},{"bufferView":38,"componentType":5126,"count":224,"type":"VEC3","min":[0.6043418,3.5917697,3.09],"max":[6.2137423,4.627426,3.1]},{"bufferView":39,"componentType":5123,"count":672,"type":"SCALAR"},{"bufferView":40,"componentType":5126,"count":112,"type":"VEC3","min":[0.6043418,3.5917697,3.09],"max":[6.2137423,4.627426,3.09]},{"bufferView":41,"componentType":5123,"count":300,"type":"SCALAR"},{"bufferView":42,"componentType":5126,"count":936,"type":"VEC3","min":[-23.3,-12.65,1.6],"max":[22.6,6.85,2.15]},{"bufferView":43,"componentType":5123,"count":7020,"type":"SCALAR"},{"bufferView":44,"componentType":5126,"count":742,"type":"VEC3","min":[19.576683,-14.25,1.62],"max":[23.623318,-11.55,2.77]},{"bufferView":45,"componentType":5123,"count":4380,"type":"SCALAR"},{"bufferView":46,"componentType":5126,"count":3404,"type":"VEC3","min":[-29.35,-8.2,1.59],"max":[-5.348463,7.8,2.61]},{"bufferView":47,"componentType":5123,"count":11532,"type":"SCALAR"},{"bufferView":48,"componentType":5126,"count":1196,"type":"VEC3","min":[24.6,-3.425,1.65],"max":[28.83,3.425,3.8]},{"bufferView":49,"componentType":5123,"count":7272,"type":"SCALAR"},{"bufferView":50,"componentType":5126,"count":374,"type":"VEC3","min":[25.45,-3.4,3.16],"max":[28.83,3.4,3.47]},{"bufferView":51,"componentType":5123,"count":2292,"type":"SCALAR"},{"bufferView":52,"componentType":5126,"count":1658,"type":"VEC3","min":[-21.0693,-5.5762,4.59],"max":[-7.2568226,5.1101594,4.6]},{"bufferView":53,"componentType":5123,"count":7374,"type":"SCALAR"},{"bufferView":54,"componentType":5126,"count":832,"type":"VEC3","min":[-28.7,-15.4,0.0],"max":[28.7,15.4,1.6]},{"bufferView":55,"componentType":5123,"count":5028,"type":"SCALAR"},{"bufferView":56,"componentType":5126,"count":1856,"type":"VEC3","min":[-28.0,-14.649409,-0.01],"max":[27.85,14.29941,1.61]},{"bufferView":57,"componentType":5123,"count":11136,"type":"SCALAR"}],"bufferViews":[{"target":34962,"buffer":0,"byteLength":31848,"byteOffset":0},{"target":34963,"buffer":0,"byteLength":15930,"byteOffset":31848},{"target":34962,"buffer":0,"byteLength":23076,"byteOffset":47780},{"target":34963,"buffer":0,"byteLength":16800,"byteOffset":70856},{"target":34962,"buffer":0,"byteLength":26388,"byteOffset":87656},{"target":34963,"buffer":0,"byteLength":26844,"byteOffset":114044},{"target":34962,"buffer":0,"byteLength":5400,"byteOffset":140888},{"target":34963,"buffer":0,"byteLength":5280,"byteOffset":146288},{"target":34962,"buffer":0,"byteLength":540,"byteOffset":151568},{"target":34963,"buffer":0,"byteLength":420,"byteOffset":152108},{"target":34962,"buffer":0,"byteLength":4992,"byteOffset":152528},{"target":34963,"buffer":0,"byteLength":3552,"byteOffset":157520},{"target":34962,"buffer":0,"byteLength":15288,"byteOffset":161072},{"target":34963,"buffer":0,"byteLength":14400,"byteOffset":176360},{"target":34962,"buffer":0,"byteLength":12240,"byteOffset":190760},{"target":34963,"buffer":0,"byteLength":12192,"byteOffset":203000},{"target":34962,"buffer":0,"byteLength":3456,"byteOffset":215192},{"target":34963,"buffer":0,"byteLength":3240,"byteOffset":218648},{"target":34962,"buffer":0,"byteLength":576,"byteOffset":221888},{"target":34963,"buffer":0,"byteLength":456,"byteOffset":222464},{"target":34962,"buffer":0,"byteLength":14976,"byteOffset":222920},{"target":34963,"buffer":0,"byteLength":19440,"byteOffset":237896},{"target":34962,"buffer":0,"byteLength":28884,"byteOffset":257336},{"target":34963,"buffer":0,"byteLength":17094,"byteOffset":286220},{"target":34962,"buffer":0,"byteLength":18780,"byteOffset":303316},{"target":34963,"buffer":0,"byteLength":8694,"byteOffset":322096},{"target":34962,"buffer":0,"byteLength":96,"byteOffset":330792},{"target":34963,"buffer":0,"byteLength":36,"byteOffset":330888},{"target":34962,"buffer":0,"byteLength":28632,"byteOffset":330924},{"target":34963,"buffer":0,"byteLength":15462,"byteOffset":359556},{"target":34962,"buffer":0,"byteLength":288,"byteOffset":375020},{"target":34963,"buffer":0,"byteLength":168,"byteOffset":375308},{"target":34962,"buffer":0,"byteLength":23376,"byteOffset":375476},{"target":34963,"buffer":0,"byteLength":23472,"byteOffset":398852},{"target":34962,"buffer":0,"byteLength":8472,"byteOffset":422324},{"target":34963,"buffer":0,"byteLength":6936,"byteOffset":430796},{"target":34962,"buffer":0,"byteLength":1728,"byteOffset":437732},{"target":34963,"buffer":0,"byteLength":1056,"byteOffset":439460},{"target":34962,"buffer":0,"byteLength":2688,"byteOffset":440516},{"target":34963,"buffer":0,"byteLength":1344,"byteOffset":443204},{"target":34962,"buffer":0,"byteLength":1344,"byteOffset":444548},{"target":34963,"buffer":0,"byteLength":600,"byteOffset":445892},{"target":34962,"buffer":0,"byteLength":11232,"byteOffset":446492},{"target":34963,"buffer":0,"byteLength":14040,"byteOffset":457724},{"target":34962,"buffer":0,"byteLength":8904,"byteOffset":471764},{"target":34963,"buffer":0,"byteLength":8760,"byteOffset":480668},{"target":34962,"buffer":0,"byteLength":40848,"byteOffset":489428},{"target":34963,"buffer":0,"byteLength":23064,"byteOffset":530276},{"target":34962,"buffer":0,"byteLength":14352,"byteOffset":553340},{"target":34963,"buffer":0,"byteLength":14544,"byteOffset":567692},{"target":34962,"buffer":0,"byteLength":4488,"byteOffset":582236},{"target":34963,"buffer":0,"byteLength":4584,"byteOffset":586724},{"target":34962,"buffer":0,"byteLength":19896,"byteOffset":591308},{"target":34963,"buffer":0,"byteLength":14748,"byteOffset":611204},{"target":34962,"buffer":0,"byteLength":9984,"byteOffset":625952},{"target":34963,"buffer":0,"byteLength":10056,"byteOffset":635936},{"target":34962,"buffer":0,"byteLength":22272,"byteOffset":645992},{"target":34963,"buffer":0,"byteLength":22272,"byteOffset":668264}],"buffers":[{"byteLength":690536,"uri":"data:application/octet-stream;base64,"}]}