{"scene":0,"asset":{"generator":"ImageToStl.com","version":"2.0"},"scenes":[{"name":"Scene","nodes":[0]}],"nodes":[{"name":"Node0","children":[1]},{"name":"Node1","mesh":0,"children":[2]},{"name":"Node2","mesh":1}],"materials":[{"name":"#F1F1FFFF","pbrMetallicRoughness":{"baseColorFactor":[0.94509804,0.94509804,1.0,1.0],"metallicFactor":0.05,"roughnessFactor":0.5},"doubleSided":true},{"name":"#B10000FF","pbrMetallicRoughness":{"baseColorFactor":[0.69411767,0.0,0.0,1.0],"metallicFactor":0.05,"roughnessFactor":0.5},"doubleSided":true}],"meshes":[{"name":"Mesh0","primitives":[{"indices":1,"material":0,"attributes":{"POSITION":0}}]},{"name":"Mesh0","primitives":[{"indices":3,"material":1,"attributes":{"POSITION":2}}]}],"accessors":[{"bufferView":0,"componentType":5126,"count":29466,"type":"VEC3","min":[-67.02922,0.0,-67.0339],"max":[67.02922,155.0,67.0339]},{"bufferView":1,"componentType":5123,"count":170685,"type":"SCALAR"},{"bufferView":2,"componentType":5126,"count":3060,"type":"VEC3","min":[-67.001205,71.0,-29.007984],"max":[67.001205,94.0,29.007984]},{"bufferView":3,"componentType":5123,"count":12213,"type":"SCALAR"}],"bufferViews":[{"target":34962,"buffer":0,"byteLength":353592,"byteOffset":0},{"target":34963,"buffer":0,"byteLength":341370,"byteOffset":353592},{"target":34962,"buffer":0,"byteLength":36720,"byteOffset":694964},{"target":34963,"buffer":0,"byteLength":24426,"byteOffset":731684}],"buffers":[{"byteLength":756112,"uri":"data:application/octet-stream;base64,"}]}