{
  "accessors": [
    {
      "bufferView": 2,
      "componentType": 5126,
      "count": 32821,
      "max": [
        0.4993149936199188,
        0.4015829861164093,
        0.9983649849891663
      ],
      "min": [
        -0.501350998878479,
        -0.4041849970817566,
        -1.0001740455627441
      ],
      "type": "VEC3"
    },
    {
      "bufferView": 2,
      "byteOffset": 393852,
      "componentType": 5126,
      "count": 32821,
      "max": [
        0.9999699592590332,
        0.9999858140945435,
        0.9999485015869141
      ],
      "min": [
        -0.9999698996543884,
        -0.9999997019767761,
        -0.9989767670631409
      ],
      "type": "VEC3"
    },
    {
      "bufferView": 1,
      "componentType": 5126,
      "count": 32821,
      "max": [
        0.9512400031089783,
        0.9996359944343567
      ],
      "min": [
        0.0003640000068116933,
        0.0003640000068116933
      ],
      "type": "VEC2"
    },
    {
      "bufferView": 0,
      "componentType": 5125,
      "count": 176688,
      "type": "SCALAR"
    }
  ],
  "asset": {
    "extras": {
      "author": "Anees Animates (https://sketchfab.com/AneesAnimates)",
      "license": "CC-BY-4.0 (http://creativecommons.org/licenses/by/4.0/)",
      "source": "https://sketchfab.com/3d-models/blue-whale-d6674411e9a64ccfbc18cac8e60c070d",
      "title": "Blue Whale"
    },
    "generator": "Sketchfab-16.61.0",
    "version": "2.0"
  },
  "bufferViews": [
    {
      "buffer": 0,
      "byteLength": 706752,
      "name": "floatBufferViews",
      "target": 34963
    },
    {
      "buffer": 0,
      "byteLength": 262568,
      "byteOffset": 706752,
      "byteStride": 8,
      "name": "floatBufferViews",
      "target": 34962
    },
    {
      "buffer": 0,
      "byteLength": 787704,
      "byteOffset": 969320,
      "byteStride": 12,
      "name": "floatBufferViews",
      "target": 34962
    }
  ],
  "buffers": [
    {
      "byteLength": 1757024,
      "uri": "scene.bin"
    }
  ],
  "extensionsUsed": [
    "KHR_materials_unlit"
  ],
  "images": [
    {
      "uri": "textures/Material.001_baseColor.png"
    }
  ],
  "materials": [
    {
      "doubleSided": true,
      "extensions": {
        "KHR_materials_unlit": {}
      },
      "name": "Material.001",
      "pbrMetallicRoughness": {
        "baseColorTexture": {
          "index": 0
        },
        "metallicFactor": 0.0
      }
    }
  ],
  "meshes": [
    {
      "name": "Mesh1_Mesh1.067_Material.001_0",
      "primitives": [
        {
          "attributes": {
            "NORMAL": 1,
            "POSITION": 0,
            "TEXCOORD_0": 2
          },
          "indices": 3,
          "material": 0,
          "mode": 4
        }
      ]
    }
  ],
  "nodes": [
    {
      "children": [
        1
      ],
      "matrix": [
        1.0,
        0.0,
        0.0,
        0.0,
        0.0,
        2.220446049250313e-16,
        -1.0,
        0.0,
        0.0,
        1.0,
        2.220446049250313e-16,
        0.0,
        0.0,
        0.0,
        0.0,
        1.0
      ],
      "name": "Sketchfab_model"
    },
    {
      "children": [
        2
      ],
      "matrix": [
        0.009999999776482582,
        0.0,
        0.0,
        0.0,
        0.0,
        0.0,
        0.009999999776482582,
        0.0,
        0.0,
        -0.009999999776482582,
        0.0,
        0.0,
        0.0,
        0.0,
        0.0,
        1.0
      ],
      "name": "a_ultra_realistic_wha_1219132311_refine.fbx"
    },
    {
      "children": [
        3
      ],
      "name": "RootNode"
    },
    {
      "children": [
        4
      ],
      "matrix": [
        100.0,
        0.0,
        0.0,
        0.0,
        0.0,
        99.99999999999972,
        -7.5497901264043296e-06,
        0.0,
        0.0,
        7.5497901264043296e-06,
        99.99999999999972,
        0.0,
        0.0,
        0.0,
        0.0,
        1.0
      ],
      "name": "Mesh1_Mesh1.067"
    },
    {
      "mesh": 0,
      "name": "Mesh1_Mesh1.067_Material.001_0"
    }
  ],
  "samplers": [
    {
      "magFilter": 9729,
      "minFilter": 9987,
      "wrapS": 10497,
      "wrapT": 10497
    }
  ],
  "scene": 0,
  "scenes": [
    {
      "name": "Sketchfab_Scene",
      "nodes": [
        0
      ]
    }
  ],
  "textures": [
    {
      "sampler": 0,
      "source": 0
    }
  ]
}
