{
  "accessors": [
    {
      "bufferView": 2,
      "componentType": 5126,
      "count": 1884,
      "max": [
        1.0282829999923706,
        2.7155349254608154,
        0.3192969858646393
      ],
      "min": [
        -1.401123046875,
        -2.4458730220794678,
        -0.6987349987030029
      ],
      "type": "VEC3"
    },
    {
      "bufferView": 2,
      "byteOffset": 22608,
      "componentType": 5126,
      "count": 1884,
      "max": [
        0.9998434782028198,
        0.9995266199111938,
        0.9975751042366028
      ],
      "min": [
        -0.9998890161514282,
        -0.9970537424087524,
        -0.9997923374176025
      ],
      "type": "VEC3"
    },
    {
      "bufferView": 3,
      "componentType": 5126,
      "count": 1884,
      "max": [
        0.9975603818893433,
        0.9999488592147827,
        0.9961207509040833,
        1.0
      ],
      "min": [
        -0.9983024597167969,
        -0.9908475875854492,
        -0.9987550973892212,
        -1.0
      ],
      "type": "VEC4"
    },
    {
      "bufferView": 1,
      "componentType": 5126,
      "count": 1884,
      "max": [
        0.9950349926948547,
        0.9872300028800964
      ],
      "min": [
        0.015034999698400497,
        0.04428600147366524
      ],
      "type": "VEC2"
    },
    {
      "bufferView": 0,
      "componentType": 5125,
      "count": 10098,
      "type": "SCALAR"
    }
  ],
  "asset": {
    "extras": {
      "author": "Johann Woelper (https://sketchfab.com/woelper)",
      "license": "CC-BY-NC-4.0 (http://creativecommons.org/licenses/by-nc/4.0/)",
      "source": "https://sketchfab.com/3d-models/fin-whale-fb69578cfaaf45969f3118de4103d03b",
      "title": "Fin Whale"
    },
    "generator": "Sketchfab-16.59.0",
    "version": "2.0"
  },
  "bufferViews": [
    {
      "buffer": 0,
      "byteLength": 40392,
      "name": "floatBufferViews",
      "target": 34963
    },
    {
      "buffer": 0,
      "byteLength": 15072,
      "byteOffset": 40392,
      "byteStride": 8,
      "name": "floatBufferViews",
      "target": 34962
    },
    {
      "buffer": 0,
      "byteLength": 45216,
      "byteOffset": 55464,
      "byteStride": 12,
      "name": "floatBufferViews",
      "target": 34962
    },
    {
      "buffer": 0,
      "byteLength": 30144,
      "byteOffset": 100680,
      "byteStride": 16,
      "name": "floatBufferViews",
      "target": 34962
    }
  ],
  "buffers": [
    {
      "byteLength": 130824,
      "uri": "scene.bin"
    }
  ],
  "extensionsUsed": [
    "KHR_materials_specular"
  ],
  "images": [
    {
      "uri": "textures/Scene_-_Root_baseColor.png"
    },
    {
      "uri": "textures/Scene_-_Root_metallicRoughness.png"
    },
    {
      "uri": "textures/Scene_-_Root_normal.png"
    }
  ],
  "materials": [
    {
      "doubleSided": true,
      "extensions": {
        "KHR_materials_specular": {
          "specularColorFactor": [
            1.0,
            1.0,
            1.0
          ],
          "specularFactor": 0.29261363636363635
        }
      },
      "name": "Scene_-_Root",
      "normalTexture": {
        "index": 2
      },
      "occlusionTexture": {
        "index": 1,
        "strength": 0.5047348484848485
      },
      "pbrMetallicRoughness": {
        "baseColorTexture": {
          "index": 0
        },
        "metallicRoughnessTexture": {
          "index": 1
        }
      }
    }
  ],
  "meshes": [
    {
      "name": "Object_0",
      "primitives": [
        {
          "attributes": {
            "NORMAL": 1,
            "POSITION": 0,
            "TANGENT": 2,
            "TEXCOORD_0": 3
          },
          "indices": 4,
          "material": 0,
          "mode": 4
        }
      ]
    }
  ],
  "nodes": [
    {
      "children": [
        1
      ],
      "matrix": [
        0.3423377275466919,
        0.0,
        0.0,
        0.0,
        0.0,
        7.601424546403821e-17,
        -0.3423377275466919,
        0.0,
        0.0,
        0.3423377275466919,
        7.601424546403821e-17,
        0.0,
        0.0,
        0.0,
        0.0,
        1.0
      ],
      "name": "Sketchfab_model"
    },
    {
      "children": [
        2
      ],
      "name": "ad6ac4366a864ffc95fd6446f1ee5185.obj.cleaner.materialmerger.gles"
    },
    {
      "mesh": 0,
      "name": "Object_2"
    }
  ],
  "samplers": [
    {
      "magFilter": 9729,
      "minFilter": 9987,
      "wrapS": 10497,
      "wrapT": 10497
    }
  ],
  "scene": 0,
  "scenes": [
    {
      "name": "Sketchfab_Scene",
      "nodes": [
        0
      ]
    }
  ],
  "textures": [
    {
      "sampler": 0,
      "source": 0
    },
    {
      "sampler": 0,
      "source": 1
    },
    {
      "sampler": 0,
      "source": 2
    }
  ]
}
