{"scene":0,"asset":{"generator":"ImageToStl.com","version":"2.0"},"scenes":[{"name":"Scene","nodes":[0]}],"nodes":[{"name":"Node0","children":[1]},{"name":"Node1","mesh":0,"children":[2,3]},{"name":"Node2","mesh":1},{"name":"Node3","mesh":2}],"materials":[{"name":"#C0C000FF","pbrMetallicRoughness":{"baseColorFactor":[0.7529412,0.7529412,0.0,1.0],"metallicFactor":0.05,"roughnessFactor":0.5},"doubleSided":true},{"name":"#143700FF","pbrMetallicRoughness":{"baseColorFactor":[0.078431375,0.21568628,0.0,1.0],"metallicFactor":0.05,"roughnessFactor":0.5},"doubleSided":true},{"name":"#CAD1EEFF","pbrMetallicRoughness":{"baseColorFactor":[0.7921569,0.81960785,0.93333334,1.0],"metallicFactor":0.05,"roughnessFactor":0.5},"doubleSided":true}],"meshes":[{"name":"Mesh0","primitives":[{"indices":1,"material":0,"attributes":{"POSITION":0}}]},{"name":"Mesh0","primitives":[{"indices":3,"material":1,"attributes":{"POSITION":2}}]},{"name":"Mesh0","primitives":[{"indices":5,"material":2,"attributes":{"POSITION":4}}]}],"accessors":[{"bufferView":0,"componentType":5126,"count":800,"type":"VEC3","min":[-20.473654,-0.45,-26.0],"max":[20.473654,0.45,25.785543]},{"bufferView":1,"componentType":5123,"count":3972,"type":"SCALAR"},{"bufferView":2,"componentType":5126,"count":539,"type":"VEC3","min":[-26.0,-0.4,-26.0],"max":[26.0,0.4,26.0]},{"bufferView":3,"componentType":5123,"count":3213,"type":"SCALAR"},{"bufferView":4,"componentType":5126,"count":1570,"type":"VEC3","min":[-19.0,0.4,-25.278996],"max":[24.899555,3.3,20.751995]},{"bufferView":5,"componentType":5123,"count":9327,"type":"SCALAR"}],"bufferViews":[{"target":34962,"buffer":0,"byteLength":9600,"byteOffset":0},{"target":34963,"buffer":0,"byteLength":7944,"byteOffset":9600},{"target":34962,"buffer":0,"byteLength":6468,"byteOffset":17544},{"target":34963,"buffer":0,"byteLength":6426,"byteOffset":24012},{"target":34962,"buffer":0,"byteLength":18840,"byteOffset":30440},{"target":34963,"buffer":0,"byteLength":18654,"byteOffset":49280}],"buffers":[{"byteLength":67936,"uri":"data:application/octet-stream;base64,"}]}