{
  "accessors": [
    {
      "bufferView": 2,
      "componentType": 5126,
      "count": 6864,
      "max": [
        366.78662109375,
        367.3222961425781,
        137.7030029296875
      ],
      "min": [
        -366.7865905761719,
        -367.32232666015625,
        -137.702880859375
      ],
      "type": "VEC3"
    },
    {
      "bufferView": 2,
      "byteOffset": 82368,
      "componentType": 5126,
      "count": 6864,
      "max": [
        1.0,
        1.0,
        1.0
      ],
      "min": [
        -1.0,
        -1.0,
        -1.0
      ],
      "type": "VEC3"
    },
    {
      "bufferView": 1,
      "componentType": 5126,
      "count": 6864,
      "max": [
        0.9859724640846252,
        0.9855532646179199
      ],
      "min": [
        0.00978117622435093,
        0.012076964601874352
      ],
      "type": "VEC2"
    },
    {
      "bufferView": 1,
      "byteOffset": 54912,
      "componentType": 5126,
      "count": 6864,
      "max": [
        0.9859724640846252,
        0.9855532646179199
      ],
      "min": [
        0.00978117622435093,
        0.012076964601874352
      ],
      "type": "VEC2"
    },
    {
      "bufferView": 1,
      "byteOffset": 109824,
      "componentType": 5126,
      "count": 6864,
      "max": [
        0.9859724640846252,
        0.9855532646179199
      ],
      "min": [
        0.00978117622435093,
        0.012076964601874352
      ],
      "type": "VEC2"
    },
    {
      "bufferView": 1,
      "byteOffset": 164736,
      "componentType": 5126,
      "count": 6864,
      "max": [
        0.9859724640846252,
        0.9855532646179199
      ],
      "min": [
        0.00978117622435093,
        0.012076964601874352
      ],
      "type": "VEC2"
    },
    {
      "bufferView": 1,
      "byteOffset": 219648,
      "componentType": 5126,
      "count": 6864,
      "max": [
        0.9859724640846252,
        0.9855532646179199
      ],
      "min": [
        0.00978117622435093,
        0.012076964601874352
      ],
      "type": "VEC2"
    },
    {
      "bufferView": 1,
      "byteOffset": 274560,
      "componentType": 5126,
      "count": 6864,
      "max": [
        0.9859724640846252,
        0.9855532646179199
      ],
      "min": [
        0.00978117622435093,
        0.012076964601874352
      ],
      "type": "VEC2"
    },
    {
      "bufferView": 1,
      "byteOffset": 329472,
      "componentType": 5126,
      "count": 6864,
      "max": [
        0.9859724640846252,
        0.9855532646179199
      ],
      "min": [
        0.00978117622435093,
        0.012076964601874352
      ],
      "type": "VEC2"
    },
    {
      "bufferView": 1,
      "byteOffset": 384384,
      "componentType": 5126,
      "count": 6864,
      "max": [
        0.9859724640846252,
        0.9855532646179199
      ],
      "min": [
        0.00978117622435093,
        0.012076964601874352
      ],
      "type": "VEC2"
    },
    {
      "bufferView": 1,
      "byteOffset": 439296,
      "componentType": 5126,
      "count": 6864,
      "max": [
        0.9859724640846252,
        0.9855532646179199
      ],
      "min": [
        0.00978117622435093,
        0.012076964601874352
      ],
      "type": "VEC2"
    },
    {
      "bufferView": 0,
      "componentType": 5125,
      "count": 17136,
      "type": "SCALAR"
    },
    {
      "bufferView": 2,
      "byteOffset": 164736,
      "componentType": 5126,
      "count": 65533,
      "max": [
        456.45849609375,
        456.45849609375,
        2158.27783203125
      ],
      "min": [
        -456.45849609375,
        -456.45849609375,
        -0.3825255036354065
      ],
      "type": "VEC3"
    },
    {
      "bufferView": 2,
      "byteOffset": 951132,
      "componentType": 5126,
      "count": 65533,
      "max": [
        1.0,
        1.0,
        1.0
      ],
      "min": [
        -1.0,
        -1.0,
        -1.0
      ],
      "type": "VEC3"
    },
    {
      "bufferView": 1,
      "byteOffset": 494208,
      "componentType": 5126,
      "count": 65533,
      "max": [
        0.996648371219635,
        0.9952141642570496
      ],
      "min": [
        0.003068733960390091,
        0.00344665115699172
      ],
      "type": "VEC2"
    },
    {
      "bufferView": 1,
      "byteOffset": 1018472,
      "componentType": 5126,
      "count": 65533,
      "max": [
        0.996648371219635,
        0.9952141642570496
      ],
      "min": [
        0.003068733960390091,
        0.0020000000949949026
      ],
      "type": "VEC2"
    },
    {
      "bufferView": 1,
      "byteOffset": 1542736,
      "componentType": 5126,
      "count": 65533,
      "max": [
        37.22137451171875,
        37.140586853027344
      ],
      "min": [
        -36.42694091796875,
        -36.42694091796875
      ],
      "type": "VEC2"
    },
    {
      "bufferView": 1,
      "byteOffset": 2067000,
      "componentType": 5126,
      "count": 65533,
      "max": [
        0.996648371219635,
        0.9952141642570496
      ],
      "min": [
        0.003068733960390091,
        0.00344665115699172
      ],
      "type": "VEC2"
    },
    {
      "bufferView": 1,
      "byteOffset": 2591264,
      "componentType": 5126,
      "count": 65533,
      "max": [
        0.996648371219635,
        0.9952141642570496
      ],
      "min": [
        0.003068733960390091,
        0.00344665115699172
      ],
      "type": "VEC2"
    },
    {
      "bufferView": 1,
      "byteOffset": 3115528,
      "componentType": 5126,
      "count": 65533,
      "max": [
        0.996648371219635,
        0.9952141642570496
      ],
      "min": [
        0.003068733960390091,
        0.00344665115699172
      ],
      "type": "VEC2"
    },
    {
      "bufferView": 1,
      "byteOffset": 3639792,
      "componentType": 5126,
      "count": 65533,
      "max": [
        0.996648371219635,
        0.9952141642570496
      ],
      "min": [
        0.003068733960390091,
        0.00344665115699172
      ],
      "type": "VEC2"
    },
    {
      "bufferView": 1,
      "byteOffset": 4164056,
      "componentType": 5126,
      "count": 65533,
      "max": [
        0.996648371219635,
        0.9952141642570496
      ],
      "min": [
        0.003068733960390091,
        0.00344665115699172
      ],
      "type": "VEC2"
    },
    {
      "bufferView": 1,
      "byteOffset": 4688320,
      "componentType": 5126,
      "count": 65533,
      "max": [
        0.996648371219635,
        0.9952141642570496
      ],
      "min": [
        0.003068733960390091,
        0.00344665115699172
      ],
      "type": "VEC2"
    },
    {
      "bufferView": 0,
      "byteOffset": 68544,
      "componentType": 5125,
      "count": 172209,
      "type": "SCALAR"
    },
    {
      "bufferView": 2,
      "byteOffset": 1737528,
      "componentType": 5126,
      "count": 65532,
      "max": [
        455.4211120605469,
        455.4211120605469,
        2140.952880859375
      ],
      "min": [
        -455.4211120605469,
        -455.4211120605469,
        29.086902618408203
      ],
      "type": "VEC3"
    },
    {
      "bufferView": 2,
      "byteOffset": 2523912,
      "componentType": 5126,
      "count": 65532,
      "max": [
        1.0,
        1.0,
        1.0
      ],
      "min": [
        -1.0,
        -1.0,
        -1.0
      ],
      "type": "VEC3"
    },
    {
      "bufferView": 1,
      "byteOffset": 5212584,
      "componentType": 5126,
      "count": 65532,
      "max": [
        0.996648371219635,
        0.9927068948745728
      ],
      "min": [
        0.003068733960390091,
        0.00344665115699172
      ],
      "type": "VEC2"
    },
    {
      "bufferView": 1,
      "byteOffset": 5736840,
      "componentType": 5126,
      "count": 65532,
      "max": [
        0.996648371219635,
        0.9927068948745728
      ],
      "min": [
        0.003068733960390091,
        0.00344665115699172
      ],
      "type": "VEC2"
    },
    {
      "bufferView": 1,
      "byteOffset": 6261096,
      "componentType": 5126,
      "count": 65532,
      "max": [
        34.313453674316406,
        37.22137451171875
      ],
      "min": [
        -37.22137451171875,
        -37.22137451171875
      ],
      "type": "VEC2"
    },
    {
      "bufferView": 1,
      "byteOffset": 6785352,
      "componentType": 5126,
      "count": 65532,
      "max": [
        0.996648371219635,
        0.9927068948745728
      ],
      "min": [
        0.003068733960390091,
        0.00344665115699172
      ],
      "type": "VEC2"
    },
    {
      "bufferView": 1,
      "byteOffset": 7309608,
      "componentType": 5126,
      "count": 65532,
      "max": [
        0.996648371219635,
        0.9927068948745728
      ],
      "min": [
        0.003068733960390091,
        0.00344665115699172
      ],
      "type": "VEC2"
    },
    {
      "bufferView": 1,
      "byteOffset": 7833864,
      "componentType": 5126,
      "count": 65532,
      "max": [
        0.996648371219635,
        0.9927068948745728
      ],
      "min": [
        0.003068733960390091,
        0.00344665115699172
      ],
      "type": "VEC2"
    },
    {
      "bufferView": 1,
      "byteOffset": 8358120,
      "componentType": 5126,
      "count": 65532,
      "max": [
        0.996648371219635,
        0.9927068948745728
      ],
      "min": [
        0.003068733960390091,
        0.00344665115699172
      ],
      "type": "VEC2"
    },
    {
      "bufferView": 1,
      "byteOffset": 8882376,
      "componentType": 5126,
      "count": 65532,
      "max": [
        0.996648371219635,
        0.9927068948745728
      ],
      "min": [
        0.003068733960390091,
        0.00344665115699172
      ],
      "type": "VEC2"
    },
    {
      "bufferView": 1,
      "byteOffset": 9406632,
      "componentType": 5126,
      "count": 65532,
      "max": [
        0.996648371219635,
        0.9927068948745728
      ],
      "min": [
        0.003068733960390091,
        0.00344665115699172
      ],
      "type": "VEC2"
    },
    {
      "bufferView": 0,
      "byteOffset": 757380,
      "componentType": 5125,
      "count": 178038,
      "type": "SCALAR"
    },
    {
      "bufferView": 2,
      "byteOffset": 3310296,
      "componentType": 5126,
      "count": 26737,
      "max": [
        293.4759216308594,
        278.93243408203125,
        1375.0767822265625
      ],
      "min": [
        -293.4779357910156,
        -279.3411865234375,
        743.590576171875
      ],
      "type": "VEC3"
    },
    {
      "bufferView": 2,
      "byteOffset": 3631140,
      "componentType": 5126,
      "count": 26737,
      "max": [
        1.0,
        1.0,
        1.0
      ],
      "min": [
        -1.0,
        -1.0,
        -1.0
      ],
      "type": "VEC3"
    },
    {
      "bufferView": 1,
      "byteOffset": 9930888,
      "componentType": 5126,
      "count": 26737,
      "max": [
        0.79358971118927,
        0.5887355804443359
      ],
      "min": [
        0.7722373604774475,
        0.5828074812889099
      ],
      "type": "VEC2"
    },
    {
      "bufferView": 1,
      "byteOffset": 10144784,
      "componentType": 5126,
      "count": 26737,
      "max": [
        0.79358971118927,
        0.5887355804443359
      ],
      "min": [
        0.7722373604774475,
        0.5828074812889099
      ],
      "type": "VEC2"
    },
    {
      "bufferView": 1,
      "byteOffset": 10358680,
      "componentType": 5126,
      "count": 26737,
      "max": [
        0.8595191240310669,
        0.8071515560150146
      ],
      "min": [
        0.7260373830795288,
        0.6627078056335449
      ],
      "type": "VEC2"
    },
    {
      "bufferView": 1,
      "byteOffset": 10572576,
      "componentType": 5126,
      "count": 26737,
      "max": [
        0.79358971118927,
        0.5887355804443359
      ],
      "min": [
        0.7722373604774475,
        0.5828074812889099
      ],
      "type": "VEC2"
    },
    {
      "bufferView": 1,
      "byteOffset": 10786472,
      "componentType": 5126,
      "count": 26737,
      "max": [
        0.79358971118927,
        0.5887355804443359
      ],
      "min": [
        0.7722373604774475,
        0.5828074812889099
      ],
      "type": "VEC2"
    },
    {
      "bufferView": 1,
      "byteOffset": 11000368,
      "componentType": 5126,
      "count": 26737,
      "max": [
        0.79358971118927,
        0.5887355804443359
      ],
      "min": [
        0.7722373604774475,
        0.5828074812889099
      ],
      "type": "VEC2"
    },
    {
      "bufferView": 1,
      "byteOffset": 11214264,
      "componentType": 5126,
      "count": 26737,
      "max": [
        0.79358971118927,
        0.5887355804443359
      ],
      "min": [
        0.7722373604774475,
        0.5828074812889099
      ],
      "type": "VEC2"
    },
    {
      "bufferView": 1,
      "byteOffset": 11428160,
      "componentType": 5126,
      "count": 26737,
      "max": [
        0.79358971118927,
        0.5887355804443359
      ],
      "min": [
        0.7722373604774475,
        0.5828074812889099
      ],
      "type": "VEC2"
    },
    {
      "bufferView": 1,
      "byteOffset": 11642056,
      "componentType": 5126,
      "count": 26737,
      "max": [
        0.79358971118927,
        0.5887355804443359
      ],
      "min": [
        0.7722373604774475,
        0.5828074812889099
      ],
      "type": "VEC2"
    },
    {
      "bufferView": 0,
      "byteOffset": 1469532,
      "componentType": 5125,
      "count": 75939,
      "type": "SCALAR"
    }
  ],
  "asset": {
    "extras": {
      "author": "Sergey Tor (https://sketchfab.com/nanox.petrov)",
      "license": "SKETCHFAB Standard (https://sketchfab.com/licenses)",
      "source": "https://sketchfab.com/3d-models/radar-tower-35805104b7e5440ba5e719005b39b4d2",
      "title": "Radar Tower"
    },
    "generator": "Sketchfab-15.55.0",
    "version": "2.0"
  },
  "bufferViews": [
    {
      "buffer": 0,
      "byteLength": 1773288,
      "name": "floatBufferViews",
      "target": 34963
    },
    {
      "buffer": 0,
      "byteLength": 11855952,
      "byteOffset": 1773288,
      "byteStride": 8,
      "name": "floatBufferViews",
      "target": 34962
    },
    {
      "buffer": 0,
      "byteLength": 3951984,
      "byteOffset": 13629240,
      "byteStride": 12,
      "name": "floatBufferViews",
      "target": 34962
    }
  ],
  "buffers": [
    {
      "byteLength": 17581224,
      "uri": "scene.bin"
    }
  ],
  "extensionsRequired": [
    "KHR_materials_pbrSpecularGlossiness"
  ],
  "extensionsUsed": [
    "KHR_materials_pbrSpecularGlossiness"
  ],
  "images": [
    {
      "uri": "textures/Red_lamps_diffuse.jpeg"
    },
    {
      "uri": "textures/Red_lamps_specularGlossiness.jpeg"
    },
    {
      "uri": "textures/Red_lamps_emissive.jpeg"
    },
    {
      "uri": "textures/RadarTower_diffuse.jpeg"
    },
    {
      "uri": "textures/RadarTower_specularGlossiness.png"
    }
  ],
  "materials": [
    {
      "doubleSided": true,
      "emissiveFactor": [
        1.0,
        1.0,
        1.0
      ],
      "emissiveTexture": {
        "index": 2
      },
      "extensions": {
        "KHR_materials_pbrSpecularGlossiness": {
          "diffuseFactor": [
            1.0,
            1.0,
            1.0,
            1.0
          ],
          "diffuseTexture": {
            "index": 0
          },
          "glossinessFactor": 0.9588570174690056,
          "specularFactor": [
            0.38857261279272465,
            0.38857261279272465,
            0.38857261279272465
          ],
          "specularGlossinessTexture": {
            "index": 1
          }
        }
      },
      "name": "Red_lamps"
    },
    {
      "doubleSided": true,
      "extensions": {
        "KHR_materials_pbrSpecularGlossiness": {
          "diffuseFactor": [
            1.0,
            1.0,
            1.0,
            1.0
          ],
          "diffuseTexture": {
            "index": 3
          },
          "glossinessFactor": 1.0,
          "specularFactor": [
            0.44952517950530896,
            0.44952517950530896,
            0.44952517950530896
          ],
          "specularGlossinessTexture": {
            "index": 4
          }
        }
      },
      "name": "RadarTower"
    }
  ],
  "meshes": [
    {
      "name": "RT_lamps_Red_lamps_0",
      "primitives": [
        {
          "attributes": {
            "NORMAL": 1,
            "POSITION": 0,
            "TEXCOORD_0": 2,
            "TEXCOORD_1": 3,
            "TEXCOORD_2": 4,
            "TEXCOORD_3": 5,
            "TEXCOORD_4": 6,
            "TEXCOORD_5": 7,
            "TEXCOORD_6": 8,
            "TEXCOORD_7": 9,
            "TEXCOORD_8": 10
          },
          "indices": 11,
          "material": 0,
          "mode": 4
        }
      ]
    },
    {
      "name": "RadarTower_RadarTower_0",
      "primitives": [
        {
          "attributes": {
            "NORMAL": 13,
            "POSITION": 12,
            "TEXCOORD_0": 14,
            "TEXCOORD_1": 15,
            "TEXCOORD_2": 16,
            "TEXCOORD_3": 17,
            "TEXCOORD_4": 18,
            "TEXCOORD_5": 19,
            "TEXCOORD_6": 20,
            "TEXCOORD_7": 21,
            "TEXCOORD_8": 22
          },
          "indices": 23,
          "material": 1,
          "mode": 4
        }
      ]
    },
    {
      "name": "RadarTower_RadarTower_0",
      "primitives": [
        {
          "attributes": {
            "NORMAL": 25,
            "POSITION": 24,
            "TEXCOORD_0": 26,
            "TEXCOORD_1": 27,
            "TEXCOORD_2": 28,
            "TEXCOORD_3": 29,
            "TEXCOORD_4": 30,
            "TEXCOORD_5": 31,
            "TEXCOORD_6": 32,
            "TEXCOORD_7": 33,
            "TEXCOORD_8": 34
          },
          "indices": 35,
          "material": 1,
          "mode": 4
        }
      ]
    },
    {
      "name": "RadarTower_RadarTower_0",
      "primitives": [
        {
          "attributes": {
            "NORMAL": 37,
            "POSITION": 36,
            "TEXCOORD_0": 38,
            "TEXCOORD_1": 39,
            "TEXCOORD_2": 40,
            "TEXCOORD_3": 41,
            "TEXCOORD_4": 42,
            "TEXCOORD_5": 43,
            "TEXCOORD_6": 44,
            "TEXCOORD_7": 45,
            "TEXCOORD_8": 46
          },
          "indices": 47,
          "material": 1,
          "mode": 4
        }
      ]
    }
  ],
  "nodes": [
    {
      "children": [
        1
      ],
      "matrix": [
        1.0,
        0.0,
        0.0,
        0.0,
        0.0,
        6.123232939436859e-17,
        1.0,
        0.0,
        0.0,
        -1.0,
        6.123232939436859e-17,
        0.0,
        0.0,
        0.0,
        0.0,
        1.0
      ],
      "name": "Sketchfab_model"
    },
    {
      "children": [
        2
      ],
      "matrix": [
        0.009999999776482582,
        0.0,
        0.0,
        0.0,
        0.0,
        -0.009999999776482582,
        0.0,
        0.0,
        0.0,
        0.0,
        -0.009999999776482582,
        0.0,
        0.0,
        0.0,
        0.0,
        1.0
      ],
      "name": "RadarTower_FBX.FBX"
    },
    {
      "children": [
        3,
        5
      ],
      "name": "RootNode"
    },
    {
      "children": [
        4
      ],
      "matrix": [
        1.0,
        0.0,
        0.0,
        0.0,
        0.0,
        1.0,
        0.0,
        0.0,
        0.0,
        0.0,
        1.0,
        0.0,
        13.0679931640625,
        77.8470458984375,
        1500.67138671875,
        1.0
      ],
      "name": "RT_lamps"
    },
    {
      "mesh": 0,
      "name": "RT_lamps_Red_lamps_0"
    },
    {
      "children": [
        6,
        7,
        8
      ],
      "matrix": [
        1.0,
        0.0,
        0.0,
        0.0,
        0.0,
        1.0,
        0.0,
        0.0,
        0.0,
        0.0,
        1.0,
        0.0,
        12.9964599609375,
        77.6976318359375,
        0.382568359375,
        1.0
      ],
      "name": "RadarTower"
    },
    {
      "mesh": 1,
      "name": "RadarTower_RadarTower_0"
    },
    {
      "mesh": 2,
      "name": "RadarTower_RadarTower_0"
    },
    {
      "mesh": 3,
      "name": "RadarTower_RadarTower_0"
    }
  ],
  "samplers": [
    {
      "magFilter": 9729,
      "minFilter": 9987,
      "wrapS": 10497,
      "wrapT": 10497
    }
  ],
  "scene": 0,
  "scenes": [
    {
      "name": "Sketchfab_Scene",
      "nodes": [
        0
      ]
    }
  ],
  "textures": [
    {
      "sampler": 0,
      "source": 0
    },
    {
      "sampler": 0,
      "source": 1
    },
    {
      "sampler": 0,
      "source": 2
    },
    {
      "sampler": 0,
      "source": 3
    },
    {
      "sampler": 0,
      "source": 4
    }
  ]
}
